<svg version="1.1" id="图层_1" xmlns="http://www.w3.org/2000/svg" x="0" y="0" viewBox="0 0 200 200" xml:space="preserve"><style>.st1{fill:#e8ce9e}.st2{fill:#b79f77}.st3{fill:#fff}.st4{fill:#ffd41d}.st5{fill:#c19d06}.st9{fill:#b27b00}.st10{fill:#ffeb99}</style><path d="M173 134v-1c5-18-2-34-3-37 0-4-10-21-19-28s-15-9-15-9l-12-4-7-2c-2 0 6-9 12-9 0 0-4-7-22 0 0 0 1-3 4-3 0 0-2-4-13 0-10 4-12 8-14 10s-5 1-9 3c-3 1-3 0-19 7L43 72 31 90c-6 9-6 24-6 24s0 12 6 28c4 8 22 20 30 23 7 3 19 5 19 5l10 1h18c5-1 27 2 47-15 9-9 14-15 16-19l2-3z"/><path d="M100 172c-21 0-38-5-51-14a47 47 0 0 1-22-40c0-36 33-66 73-66s73 30 73 66c0 17-7 31-22 40-13 9-30 14-51 14z" fill="#fff2d4"/><path d="M100 55c39 0 70 30 70 63s-31 51-70 51-70-18-70-51 31-63 70-63m0-6c-41 0-76 32-76 69 0 18 8 33 23 43 13 9 32 13 53 13s39-4 53-13c15-10 23-25 23-43 0-37-35-69-76-69z"/><path class="st1" d="M90 97l3-1h8c-1 1 4 1 5 1 2 0 8 1 11 11s13 7 13 7 0 2-3 2c-2-1 3 2 5 0l-1 2s2 1 3-2c2-3 9-4 13-1 0 0-1-2-4-2 0 0 4-1 5 2 2 3 1-1 0-1 0 0 5 1 5 6 1 4-1 5-1 5l2-1c1-1 0 3-2 5l-5 4c-2 1-2 3-2 3s-1-2 0-2-5 0-6 2v-1c1 0-4 0-5 3v-1c0-1-5 3-1 6 0 0-3 0-3-2s-2-1-2 2-4 2-7 4-5 5-12 4l5-1c1-1-3 1-7-1h-1c-2 1-7 3-11 2l3-1h-5c-3-1-1-2-5-2s-9 2-13-2 0 1 2 2c0 0-3 0-6-3l-2-4c-1-2-4-3-5-3h3c2 0-3-3-7 0 0 0 0-2 2-3h-6c-3 0-7-2-7-5l2 2c1 0-3-2-3-6l1 1-1-1-2-3c-1-1-1-3 1-5v2c1 0-1-4 5-6 0 0-2 2-1 3s1-3 4-3 3-1 2-1c0 0 1-1 5 1 4 1 2 3 6 3s6-2 6-2l-2 3c-1 0 4 0 6-4 3-4 2-7 4-9l-3 3s1-4 5-6 5-4 6-6z"/><path class="st2" d="M101 97s8 0 10 3c3 2 4 4 5 8 2 3 5 8 8 10h4s0 2-2 1c0 0 2 2 4 0l-1 1s2 2 6-2c3-4 10-2 10-2h-5s7-1 9 2c3 3 1-1 0-1 0 0 5 1 4 6l-3 5 2-1s0 6-9 7c-8 2-14 5-12 9l-2-3-2 3c-1 2-5 3-7 4-1 2-6 3-8 3 0 0 4 0 5-2s-4 2-10 1h3l-6 1c-1 1-4 2-12-1-7-2-7 2-14-2s-6-5-6-5-2 1 1 4c0 0-3-1-3-4s-3-4-3-4-2-1-5-1l2-1-8-1c-3 0-5-3-5-3l4 2c1 0-6-2-6-6l2 1-3-3c0-1-2-2-2-5l1 2c1 0-1-5 3-6l-1 4c1 1 1-3 4-5h8l-3-1s4-1 6 2 5 4 9 2l6-3c3-2 3-9 6-12 2-3 9-8 16-7z"/><path class="st1" d="M170 118c0-31-28-59-63-62l-1 2v2c11-3 27 5 27 5-4-2-7 1-7 1 13-1 21 7 21 7-3-1-7 1-7 1 13-1 19 13 19 13-5-3-9 0-9 0 15 1 14 19 14 19-11-5-19 5-19 5 12-6 18 2 18 2-5-3-11 0-11 0 16 0 13 21 13 21 0-3-3-6-3-6 2 14-14 26-14 26 4-4 3-10 3-10-6 13-22 19-22 19 3-2 4-5 4-5-6 6-21 9-21 9 6-2 8-5 8-5-10 8-36 4-36 4 8 0 15-3 15-3-23 4-34-4-34-4 9 2 12 0 12 0-19-2-27-14-27-14 1 4 7 9 7 9-15-8-15-23-15-23-3 6 1 12 1 12s-8-7-6-19 13-11 13-11c-7-4-11 0-11 0 3-6 7-6 7-6-10-2-13 9-13 9 2-11 8-23 8-23-3 1-4 4-4 4 4-13 14-22 14-22-2 3-1 5-1 5 7-13 17-16 17-16l-3 5s3-4 9-7l11-2 3-4c-32 6-57 32-57 62 0 33 31 51 70 51s70-18 70-51z"/><path class="st2" d="M155 107s10 0 12 7c0 0-1-3-4-3 0 0 4 3 3 8 0 0-1-5-8-5 0 0 12 6 7 23l-1 3a44 44 0 0 0 6-28l-2-1s-4-6-13-4zM164 92c-1-1-5-5-10-5 0 0 7 0 11 12l4 9-5-16zM63 162v-1l-2-1-2-2c-4-1-6-5-6-5l1 3c-4-2-6-8-6-8-1 4 3 7 3 7v1l12 6z"/><path class="st2" d="M47 152c-3-3-3-5-3-5l1 4c-9-7-9-20-9-20v2c-2-6 2-15 2-15l-3 6c-1-6 3-13 3-13-4 3-5 8-5 8-2-5 0-13 0-13l-2 2-1 10c0 17 8 29 21 38l-4-4z"/><path d="M147 131c9-8 4-13 4-13 1 4-1 6-1 6 1-3 0-6-5-8-5-1-10 3-13 5-2 2-6-1-10-4s-4-5-8-12c-4-8-14-7-14-7s-10-1-14 7c-4 7-4 9-8 12s-7 6-10 4-8-6-13-5c-5 2-6 5-5 8 0 0-2-2-1-6 0 0-5 5 4 13l-4-2s2 3 11 5c8 2 9 3 10 6v-2l4 5c1 1 6 4 9 4l12 2h10l12-2c3 0 8-3 9-4l4-5v2c1-3 2-4 10-6 9-2 11-5 11-5l-4 2zM78 100H57l-2-2 2-2h21l2 2-2 2z"/><path class="st3" d="M63 94l7-4h7l4 1a9 9 0 0 1 3 2l1 1 1 3-1 3-2 1h-3l3-2v-1-2l-3-1-3-1a52 52 0 0 0-11 0h-3z"/><path d="M53 98v-2l1-2 2-1 2 1-1 1v1h-1-1l-1 1-1 1z"/><circle cx="60" cy="101" r="3"/><path class="st3" d="M59 102h1c0-1 0 0 0 0l1-1 1 1-1 1-1 1-1-1v-1zM58 105a14 14 0 0 0 3 0h1v-1h1l2-1h1v4h-1-1l-2 1-2-1-3-1 1-1zM62 97l8-1h4l4 1H62z"/><path d="M143 100h-21l-2-2 2-2h21l2 2-2 2z"/><path class="st3" d="M128 94l7-4h8l3 1a9 9 0 0 1 3 2h1l1 1v3l-1 3-2 1h-2l2-2 1-1-1-2-3-1-3-1a52 52 0 0 0-10 0h-4z"/><path d="M118 98v-2l1-2 2-1 2 1v1l-1 1h-1l-1 1-1 1h-1z"/><circle cx="125" cy="101" r="3"/><path class="st3" d="M124 102h2v-1h1v1l-1 1-1 1v-1h-1v-1zM123 105a14 14 0 0 0 3 0h1l1-1 3-1 1 2-1 1v1h-1l-2 1-3-1-2-1v-1zM128 97l7-1h4l4 1h-15z"/><path class="st4" d="M100 148c-17 0-30-6-30-13s13-13 30-13 30 6 30 13-13 13-30 13z"/><path d="M100 124c15 0 28 5 28 11s-13 12-28 12-28-6-28-12 12-11 28-11m0-3c-15 0-31 5-31 14s16 15 31 15 31-6 31-15-16-14-31-14z"/><path class="st5" d="M121 127h-9s-6 3-3 3 7 4 10 4l4 1-2 1s6-2 4 2-7 5-7 5l1-2c-3 4-14 5-12 5l2-2-7 2 4-2 3-3s-2 3-9 3-15-3-15-3l3 3h4c-9 0-14-5-14-5l4 4-4-2c-4-2-3-5-3-5l1-1v1l2-1 4-1-1 1 3-2s1-2 5-2l2-1v-1l-5 1-4-3-5 1c-3 2-5 5-5 7 0 6 12 12 28 12s28-6 28-12c0-3-3-6-7-8z"/><path d="M89 128l2 3c1 2 2 1 5 2h6l5-1c2-1 4-2 4-4 1-3-3-5-3-5l-18 1-1 4z"/><path d="M100 133c-6 0-10-3-10-5s4-5 10-5 10 2 10 5-4 5-10 5z" fill="#ffb000"/><path d="M100 124c5 0 9 1 9 4s-4 4-9 4-9-2-9-4 4-4 9-4m0-2c-5 0-11 2-11 6s6 6 11 6 11-3 11-6-6-6-11-6z"/><path d="M109 128v-1l-2 1c-2 3-3 1-4 2l-4-1-3 1-3-2-2-1v1c0 2 4 4 9 4s9-2 9-4z" fill="#c60"/><path class="st4" d="M131 135l-13-2c-7-4-10-5-18-5s-11 1-18 5l-13 2c-7 0-13-2-16-5-2-3-3-6-2-9 1-2 4-3 7-3l9 3 2 1c5 0 13-6 15-12 4-10 11-11 16-11s12 1 16 11c2 6 10 12 15 12l2-1 9-3c3 0 6 1 7 3 1 3 0 6-2 9-3 3-9 5-16 5z"/><path d="M100 101c4 0 11 1 15 9 2 7 10 13 16 13l3-1 8-3c5 0 8 5 4 10-3 3-9 5-15 5-5 0-10-1-13-3-7-3-10-4-18-4s-11 1-18 4c-4 2-8 3-13 3-6 0-12-2-15-5-4-5-2-10 4-10l8 3 3 1c6 0 14-6 16-13 4-8 11-9 15-9m0-3c-3 0-13 0-18 11-2 6-8 11-13 11h-1c-3-3-7-4-10-4-4 0-7 2-8 5-2 3-1 7 2 10s9 6 17 6c5 0 10-1 14-3 7-3 10-4 17-4s10 1 17 4c4 2 9 3 14 3 8 0 14-3 17-6s4-7 2-10c-1-3-4-5-8-5-3 0-7 1-10 4h-1c-5 0-11-5-13-11-5-11-15-11-18-11z"/><path class="st5" d="M93 104s-2 6 2 7c4 2 3-4 2-6l-4-1zM107 104s2 6-2 7c-4 2-3-4-2-6l4-1z"/><ellipse transform="rotate(-19 95 108)" cx="95" cy="108" rx="2" ry="3"/><ellipse transform="rotate(-71 105 108)" cx="105" cy="108" rx="3" ry="2"/><path d="M109 70c-1-17 15-27 15-27-19 0-26 14-26 14 1-9 8-15 8-15-21 3-23 19-23 19" fill="#fff2d4" stroke="#000" stroke-width="6" stroke-linecap="round" stroke-linejoin="round" stroke-miterlimit="10"/><path class="st1" d="M119 43l-11 4c-7 4-10 10-10 10 0-3 1-6 3-8l3-6-6 1-5 3-6 5-2 6v2l4-4c3-4 4-3 2 1-2 3 2 1 5-4l-1 4c-1 1-1 4 1 6 2 1-1-3 4-4s2-7 10-10-2 2-3 7c-1 4 0 1 2 0 2-2-5 5-2 13l2-4c0-5 3-10 5-13l6-6-1-3zM85 60z"/><path d="M125 43l-1-1c-10-1-16 3-21 6l4-5 1-1-2-1c-22 2-24 20-24 20a2 2 0 0 0 3 0s2-12 17-16c-2 3-5 7-6 12l1 1h2c0-1 6-11 20-13-5 4-13 13-12 25l2 1 1-1c-1-16 14-25 15-25v-2zM29 112s2-7 6-11c0 0-6 13-5 22l2-4s-2 6 0 12c0 0 0-3 2-4 0 0-2 5 1 11 0 0-1-3 1-4 0 0 0 7 3 10 2 3 7 10 11 11 0 0-4-3-4-5 0 0 5 7 16 11 0 0-3-2-3-4 0 0 7 8 18 8 0 0-4 2-9 1s-13-6-13-6l-8-4-9-9-8-14-3-10 2-11zM171 112s-2-7-6-11c0 0 6 13 5 22l-2-4s2 6 0 12c0 0 0-3-2-4 0 0 2 5-1 11 0 0 1-3-1-4 0 0 0 7-3 10-2 3-7 10-11 11 0 0 4-3 4-5 0 0-5 7-16 11 0 0 3-2 3-4 0 0-7 8-18 8 0 0 4 2 9 1s13-6 13-6l8-4 9-9 8-14 3-10-2-11zM93 109l1 2 2 1v-1h1l1-1 1 1-1 2h-3l-2-2-1-2h1zM108 109l-1 2-2 2h-2-1a2 2 0 0 1 0-3l1 1h1v1l2-1 1-2h1z"/><path class="st9" d="M105 106l-1 2h1l1-2h-1zM95 106l1 2h-1l-1-2h1z"/><path class="st5" d="M134 122c-6 4-16-4-19-12l-6-7h-3s4 0 5 4 4 5 3 11c0 0 2-2 1-4 0 0 3 2 4 9l1-4 5 5c3 4 7 1 7 1s-3 1-4-1c-2-1 3 2 6-1 3-2 8-5 10-2 2 2 0 4 0 4s2-1 2-3c-1-3 5 5-5 6l3 1c2-1-4 5-13 2l2 2c2 1-5 0-9-2l2 2c1 0-7-1-8-4-2-2-7-4-12-4l5 2s-7-2-15-1c-7 1-1-1-1-1s-4 0-6 2-10 5-12 5h-6 2c1 1-7 2-6 0h-7c-2 1-9-7-6-9 2-3 4 1 4 1s1-2-1-4c-1-1 3 0 3 3 0 0 2-1 1-2 0-2 6 1 6 4s-2 1-2 1 1 4 4 0c4-3 7-2 9-4 1-3 2-1 1 0 0 0 1 1 2-3s4-4 5-8c2-3 1-4 4-7 2-2 7-3 8-2l2 2v-2c-1-1 4 0 2 1l2-1h3l2 1c-3-2-6-2-9-2-4 0-11 1-15 9-3 8-13 16-19 12-10-7-18 0-12 7 5 6 21 6 28 2 7-3 10-4 18-4s11 1 18 4c7 4 23 4 28-2 6-7-2-14-12-7z"/><path class="st10" d="M97 123s5-1 7 1c3 1 1-1-1-2h1c1 1 0-2-3-2s1-2 1-1-1-2-3-1c-3 2-1 2 1 2l-2 1h1l-4 2h2z"/><path class="st1" d="M97 95s5-1 7 1c3 1 1-1-1-2h1c1 1 0-2-3-2s1-2 1-1-1-2-3-1c-3 2-1 2 1 2l-2 1h1l-4 2h2z"/><path d="M55 124a6 6 0 0 0 2 4h1l1 1h1l1 2h-3l-2-2-1-2v-3zM145 124v3l-1 2-2 2h-3l1-2h1l1-1h1l1-2 1-2z"/><path class="st10" d="M95 103h2l2 1 1 2-1 2v-1h-1v-1-1l-1-1-2-1zM105 103l-2 1-1 1v2h-1v1l-1-2 1-2 2-1h2zM110 110a7 7 0 0 1 3 3l1 1-1 2-1-1-1-1a11 11 0 0 0-1-3v-1zM89 107l1 2-1 2a7 7 0 0 1-3 2l1-2v-1l1-1 1-2z"/><path class="st5" d="M121 121l1 2 2 1 1 1 1 1v1l-2-1-1-1-2-2v-2zM63 121h1l2 1 1 1v2h-1l-1-1v-1l-2-1v-1z"/><g><path class="st5" d="M136 124v-2l1-2h6l1 2-1 2h-1l1-1-2-1-2 1-3 1z"/></g><g><path class="st10" d="M111 124h4l3 2 1 1h1l1 2 2 2v1h-2l-2-1-1-2h-1v-1l-3-2-3-1v-1z"/></g><g><path class="st1" d="M50 85v-3-2l3-5 2-1 2-2 5-2-4 3-3 4-2 4-3 4z"/></g><g><path class="st1" d="M146 89h6c2 0 4 2 5 3l3 2 1 3 2 5-3-5-4-3-5-2-5-2v-1z"/></g><g><path class="st1" d="M131 69l3-1 4 1a18 18 0 0 1 6 3l-3-1-4-1h-3l-3-1z"/></g><g><path d="M137 158a28 28 0 0 0 8-7l3-4 1-1 1-1 1-3 1 1a11 11 0 0 1-3 7l-2 2a25 25 0 0 1-9 6h-1z"/></g><g><path d="M63 155l5 1 5 2 5 1h5l-5 2h-3l-3-1-5-1-3-2-1-2z"/></g><g><path d="M155 89l4 1 2 2 1 3 1 3h-1v-1l-1-1-1-1-1-1-1-1-1-1-1-1-1-1v-1z"/></g><g><path class="st1" d="M66 73v-3l3-2a15 15 0 0 1 6-2l-2 2-2 2-2 2h-2l-1 1z"/></g><g><path class="st10" d="M95 142h4l4-1 4-1 4-2v1l-1 2a8 8 0 0 1-4 2h-3a19 19 0 0 1-7 0h-1-1l1-1z"/></g><g><path class="st10" d="M85 136l3 2 3 1 2 1h1l2 1h2l-2 1h-6l-4-2-2-3 1-1z"/></g><g><path d="M95 96a14 14 0 0 1 5-2h3l2 2h-3-2a19 19 0 0 0-5 0z"/></g><g><path class="st1" d="M105 152a11 11 0 0 1-5 3l-3-1-2-2 3 1h4l3-1z"/></g><g><path d="M120 45l-2 2-3 2-1 1-1 1-1 1-1 1-2 2-1 1-1 1-1 3-2 3v-5l1-2a22 22 0 0 1 4-7l1-2 3-2h7z"/></g><g><path class="st1" d="M155 144a27 27 0 0 0 3-10v-3-1-1l1-6 1 1 1 1v1l1 1v6l-1 1a21 21 0 0 1-6 10z"/></g><g><path d="M54 73v-2-1l3-2 3-2h3l-2 2-2 2-2 2-3 1z"/></g><g><path d="M148 74l2 1h2l3 3 2 3 1 4-2-3-3-2-3-2-2-3v-1z"/></g></svg>