<?xml version="1.0" standalone="no"?><!DOCTYPE svg PUBLIC "-//W3C//DTD SVG 1.1//EN" "http://www.w3.org/Graphics/SVG/1.1/DTD/svg11.dtd"><svg t="1631495200534" class="icon" viewBox="0 0 1024 1024" version="1.1" xmlns="http://www.w3.org/2000/svg" p-id="2523" xmlns:xlink="http://www.w3.org/1999/xlink" width="16" height="16"><defs><style type="text/css"></style></defs><path d="M554.5 825.1H206.4c-61.6 0-111.7-50.1-111.7-111.7V527.3c0-61.6 50.1-111.7 111.7-111.7h588.2c30.8 0 55.8-25 55.8-55.8V188.5c0-30.8-25-55.8-55.8-55.8H130.1c-15.4 0-27.9-12.5-27.9-27.9 0-15.4 12.5-27.9 27.9-27.9h664.5c61.6 0 111.7 50.1 111.7 111.7v171.2c0 61.6-50.1 111.7-111.7 111.7H206.4c-30.8 0-55.8 25-55.8 55.8v186.1c0 30.8 25 55.8 55.8 55.8h348.1c15.4 0 27.9 12.5 27.9 27.9 0 15.5-12.5 28-27.9 28z" fill="#E2771E" p-id="2524"></path><path d="M736.9 946H515.4c-46.3 0-83.8-37.5-83.8-83.8V732c0-46.3 37.5-83.8 83.8-83.8h221.5V946z" fill="#F7D04A" p-id="2525"></path><path d="M431.6 800.9v61.4c0 46.3 37.5 83.8 83.8 83.8h221.5v-61.4H515.4c-46.3-0.1-83.8-37.6-83.8-83.8z" fill="#F3B41B" p-id="2526"></path><path d="M900.7 816.7H750.8v-39.1h149.8c22.1 0 40-18 40-40s-18-40-40-40H750.8v-49.3c0-7.7-6.2-14-14-14h-67c-7.7 0-14 6.3-14 14s6.2 14 14 14h53v269.9H515.4c-38.5 0-69.8-31.3-69.8-69.8V732c0-38.5 31.3-69.8 69.8-69.8h80c7.7 0 14-6.3 14-14s-6.2-14-14-14h-80c-53.9 0-97.7 43.8-97.7 97.7v23.3H206.4c-23.1 0-41.9-18.8-41.9-41.9v-186c0-23.1 18.8-41.9 41.9-41.9h588.2c69.3 0 125.6-56.4 125.6-125.6V188.5c0-69.3-56.4-125.6-125.6-125.6H130.1c-23.1 0-41.9 18.8-41.9 41.9 0 23.1 18.8 41.9 41.9 41.9h108c7.7 0 14-6.2 14-14 0-7.7-6.2-14-14-14h-108c-7.7 0-14-6.3-14-14s6.3-14 14-14h664.5c53.9 0 97.7 43.8 97.7 97.7v171.2c0 53.9-43.8 97.7-97.7 97.7H206.4c-38.5 0-69.8 31.3-69.8 69.8v186.1c0 38.5 31.3 69.8 69.8 69.8h211.3v27.9H206.4c-53.9 0-97.7-43.8-97.7-97.7V527.3c0-53.9 43.8-97.7 97.7-97.7h588.2c38.5 0 69.8-31.3 69.8-69.8V188.5c0-38.5-31.3-69.8-69.8-69.8H312.5c-7.7 0-14 6.3-14 14s6.2 14 14 14h482.1c23.1 0 41.9 18.8 41.9 41.9v171.2c0 23.1-18.8 41.9-41.9 41.9H206.4c-69.3 0-125.6 56.4-125.6 125.6v186.1c0 69.3 56.4 125.6 125.6 125.6h211.3v23.3c0 53.9 43.8 97.7 97.7 97.7h221.5c7.7 0 14-6.3 14-14v-49.3h149.8c22.1 0 40-18 40-40 0-22.1-18-40-40-40z" fill="" p-id="2527"></path><path d="M643.7 681c-5.3-3.2-12.1-2.6-16.7 1.6L504.1 794.3c-9.2 8.4-3.1 24.3 9.4 24.3h41.9l-18.2 75.8c-1.3 5.5 0.9 11.4 5.5 14.7 5.4 3.8 13 3.2 17.8-1.4L687 784.8c8.8-8.6 2.5-24-9.7-24h-45l17.5-64.3c1.7-5.9-0.8-12.2-6.1-15.5z" fill="" p-id="2528"></path><path d="M900.7 844.6H794.6v24.2h106.1c6.7 0 12.1-5.4 12.1-12.1 0-6.7-5.5-12.1-12.1-12.1zM900.7 749.7c6.7 0 12.1-5.4 12.1-12.1 0-6.7-5.4-12.1-12.1-12.1H794.6v24.2h106.1z" fill="#CCCCCC" p-id="2529"></path><path d="M750.8 725.5h43.7v24.2h-43.7zM750.8 844.6h43.7v24.2h-43.7z" fill="#B2B2B2" p-id="2530"></path><path d="M642.9 788.8l-67.3 65.4 11.1-46.3c1-4.2 0-8.5-2.6-11.9s-6.7-5.3-11-5.3h-23.5l60.7-55.1-9.7 35.6c-1.1 4.2-0.3 8.7 2.4 12.1 2.6 3.5 6.7 5.5 11.1 5.5h28.8z" fill="#E5E5E5" p-id="2531"></path></svg>