<svg width="312" height="304" xmlns="http://www.w3.org/2000/svg"><defs><linearGradient x1="50%" y1="0%" x2="50%" y2="100%" id="a"><stop stop-color="#9D61F7" offset="0%"/><stop stop-color="#00DEFC" offset="100%"/></linearGradient><linearGradient x1="50%" y1="0%" x2="50%" y2="100%" id="b"><stop stop-color="#966AFF" offset="0%"/><stop stop-color="#E885E0" offset="100%"/></linearGradient><linearGradient x1="49%" y1="-17%" x2="51%" y2="90%" id="c"><stop stop-color="#FFF" offset="0%"/><stop stop-color="#20BDFF" offset="51%"/><stop stop-color="#3390FF" offset="100%"/></linearGradient><linearGradient x1="50%" y1="0%" x2="50%" y2="100%" id="d"><stop stop-color="#FFB36D" offset="0%"/><stop stop-color="#E73E79" offset="100%"/></linearGradient><linearGradient x1="50%" y1="-31%" x2="50%" y2="128%" id="e"><stop stop-color="#FFF2F2" stop-opacity="0" offset="0%"/><stop stop-color="#FEFAF9" offset="100%"/></linearGradient><linearGradient x1="243%" y1="49%" x2="56%" y2="50%" id="f"><stop stop-color="#FFF" offset="0%"/><stop stop-color="#20BDFF" offset="51%"/><stop stop-color="#3390FF" offset="100%"/></linearGradient><linearGradient x1="78%" y1="25%" x2="43%" y2="75%" id="g"><stop stop-color="#17B7BD" offset="0%"/><stop stop-color="#9DEB93" offset="100%"/></linearGradient><linearGradient x1="50%" y1="0%" x2="50%" y2="100%" id="h"><stop stop-color="#FB65BC" offset="0%"/><stop stop-color="#FCAFA9" offset="100%"/></linearGradient></defs><g fill="none" fill-rule="evenodd"><path d="M192 68h57l27 48a60 60 0 0 1-24 5c-31 0-56-23-60-53zm0-10c1-31 25-56 56-58v58h-56z" fill="url(#a)"/><path d="M285 111l-28-48V0c31 3 55 29 55 60a61 61 0 0 1-27 51z" fill="url(#b)"/><path d="M162 219v30a5 5 0 1 1-10 0v-32l-19 33a5 5 0 0 1-8-5l25-44a5 5 0 0 1 2-2V79a5 5 0 1 1 10 0v121l1 1 25 44a5 5 0 0 1-8 5l-18-31z" fill="url(#c)" fill-rule="nonzero"/><path d="M74 84h166a8 8 0 0 1 8 8v104a8 8 0 0 1-8 8H74a8 8 0 0 1-8-8V92a8 8 0 0 1 8-8z" fill="url(#d)"/><path d="M78 110h158a8 8 0 0 1 8 8v74a8 8 0 0 1-8 8H78a8 8 0 0 1-8-8v-74a8 8 0 0 1 8-8z" fill="url(#e)"/><path d="M137 95h41a2 2 0 0 1 2 2v1a2 2 0 0 1-2 2h-41a2 2 0 0 1-2-2v-1l2-2zm90 32h-3a2 2 0 1 1-1-2l6-2a2 2 0 0 1 2 1l2 6a2 2 0 0 1-3 1l-1-2c-6 10-12 16-20 16-5 0-8-2-12-7l-2-2v-1a4 4 0 0 0 2-2l1 1 2 2c3 4 5 6 8 6 7 0 13-5 19-15zm-87 33a4 4 0 0 0 1 3l-11-1-2-1a63 63 0 0 0-18-1c-11 0-21 13-31 38a2 2 0 0 1-3-1c11-27 22-40 34-40 7-1 12 0 18 2h2l10 1zm7-1l7-8 3-4 2-4c8-12 13-17 20-18 5-1 9 0 13 3a4 4 0 0 0-2 2c-3-2-6-3-10-2-6 1-11 6-18 17l-3 4-2 4-9 9a4 4 0 0 0-1-3z" fill="#FFF" fill-rule="nonzero"/><path d="M144 164a2 2 0 0 1 0 3 6 6 0 0 1-1-1 2 2 0 0 1 0-3l1 1zm-1-1a2 2 0 1 1-2 3l-1-1a2 2 0 0 1 2-2h1zm-1-1a2 2 0 0 1-3 2v-1a2 2 0 0 1 3-1zm0-1a2 2 0 0 1-3 0v-1a2 2 0 1 1 3 0 3 3 0 0 0 0 1zm0-1a2 2 0 0 1-3-2l1-1a2 2 0 1 1 2 2 3 3 0 0 0 0 1zm1-1a2 2 0 0 1-2-3h1a2 2 0 0 1 1 3zm1 0a2 2 0 1 1 0-3 6 6 0 0 1 1 0 2 2 0 0 1-1 3zm1 0a2 2 0 0 1 1-3l2 1a2 2 0 1 1-2 2 3 3 0 0 0-1 0zm1 1a2 2 0 1 1 2-2l1 1a2 2 0 0 1-3 1zm0 1a2 2 0 0 1 3-1 6 6 0 0 1 0 2 2 2 0 1 1-3-1zm0 1a2 2 0 0 1 3 1 6 6 0 0 1-1 1 2 2 0 0 1-2-1v-1zm-1 1a2 2 0 1 1 2 2l-1 1a2 2 0 1 1-1-3zm-1 0a2 2 0 1 1 1 3h-1a2 2 0 0 1 0-2v-1zm50-29a2 2 0 0 1 0 3 6 6 0 0 1-1-1 2 2 0 0 1 0-3l1 1zm-1-1a2 2 0 1 1-2 3l-1-1a2 2 0 0 1 2-2h1zm-1-1a2 2 0 0 1-3 2v-1a2 2 0 0 1 3-1zm0-1a2 2 0 0 1-3 0v-1a2 2 0 1 1 3 0 3 3 0 0 0 0 1zm0-1a2 2 0 0 1-3-2l1-1a2 2 0 1 1 2 2 3 3 0 0 0 0 1zm1-1a2 2 0 0 1-2-3h1a2 2 0 0 1 1 3zm1 0a2 2 0 1 1 0-3 6 6 0 0 1 1 0 2 2 0 0 1-1 3zm1 0a2 2 0 0 1 1-3l2 1a2 2 0 1 1-2 2 3 3 0 0 0-1 0zm1 1a2 2 0 1 1 2-2l1 1a2 2 0 0 1-3 1zm0 1a2 2 0 0 1 3-1 6 6 0 0 1 0 2 2 2 0 1 1-3-1zm0 1a2 2 0 0 1 3 1 6 6 0 0 1-1 1 2 2 0 0 1-2-1v-1zm-1 1a2 2 0 1 1 2 2l-1 1a2 2 0 1 1-1-3zm-1 0a2 2 0 1 1 1 3h-1a2 2 0 0 1 0-2v-1zm-111 6a2 2 0 0 1 0-3l1-1a2 2 0 1 1 0 3h-1zm3-1a2 2 0 0 1-2-3h1a2 2 0 1 1 2 2l-1 1zm2-2a2 2 0 0 1-3-2 2 2 0 1 1 3 1v1zm0-3a2 2 0 0 1-2 0l-1-1a2 2 0 1 1 3 0l1 1zm0-3a2 2 0 1 1-3 2 3 3 0 0 0 0-1 2 2 0 0 1 2-2l1 1zm-2-2a2 2 0 1 1-2 3 2 2 0 1 1 1-3h1zm-3 0a2 2 0 1 1 0 3 2 2 0 0 1-1-3 6 6 0 0 1 1 0zm-2 0a2 2 0 0 1 1 3h-1a2 2 0 1 1-2-2l2-1zm-2 2a2 2 0 1 1 2 2 2 2 0 0 1-3-1l1-1zm-1 2a2 2 0 0 1 3 1 2 2 0 1 1-3 1 6 6 0 0 1 0-2zm0 3a2 2 0 1 1 3-1v1a2 2 0 1 1-2 1 6 6 0 0 1-1-1zm2 2a2 2 0 1 1 2-2 2 2 0 1 1-1 3 6 6 0 0 1-1-1zm2 1a2 2 0 1 1 1-3v1a2 2 0 1 1 0 3l-1-1zm1-12a2 2 0 0 1 0-3l1-1a2 2 0 1 1 0 3l-1 1zm3-1a2 2 0 0 1-2-3h1a2 2 0 1 1 2 2l-1 1zm2-2a2 2 0 0 1-3-2 2 2 0 1 1 3 1v1zm0-3a2 2 0 0 1-2 0l-1-1a2 2 0 1 1 3 0l1 1zm0-3a2 2 0 1 1-3 2 3 3 0 0 0 0-1 2 2 0 0 1 2-2l1 1zm-2-2a2 2 0 1 1-2 3 2 2 0 1 1 1-3h1zm-3 0a2 2 0 1 1 0 3 2 2 0 0 1-1-3 6 6 0 0 1 1 0zm-2 0a2 2 0 0 1 1 3h-1a2 2 0 1 1-2-2l2-1zm-2 2a2 2 0 1 1 2 2 2 2 0 0 1-3-1l1-1zm-1 2a2 2 0 0 1 3 1 2 2 0 1 1-3 1 6 6 0 0 1 0-2zm0 3a2 2 0 1 1 3-1v1a2 2 0 1 1-2 1 6 6 0 0 1-1-1zm2 2a2 2 0 1 1 2-2 2 2 0 1 1-1 3 6 6 0 0 1-1-1zm2 1a2 2 0 1 1 1-3v1a2 2 0 1 1 0 3l-1-1z" fill="#FFF" fill-rule="nonzero"/><path d="M183 153a4 4 0 0 1 0 1h1v1a6 6 0 0 1-1 1 2 2 0 0 1-2-1v-1a2 2 0 0 1 2-1zm0 0a2 2 0 0 1-2-1 2 2 0 1 1 2-2l1 1c5 0 9 3 14 9l2 2c3 4 5 6 8 6 7 0 16-10 27-29h-3a2 2 0 1 1 0-3l6-1a2 2 0 0 1 1 1l2 6a2 2 0 0 1-2 1l-2-3c-11 20-20 31-28 31-5 0-8-2-12-7l-2-2c-4-5-7-7-11-8a2 2 0 0 1-3-1 2 2 0 0 1 2-2 4 4 0 0 1 0 2zm0-2a2 2 0 0 1-2 0 3 3 0 0 0-1 0 2 2 0 0 1 1-3l2 1v2h-1a4 4 0 0 1 1 0zm-8 5l1-1a4 4 0 0 1-1 0 2 2 0 0 1 2 0h1a2 2 0 1 1-2 3l-1-1a2 2 0 0 1 0-1zm-1 0c-3 2-6 6-10 13l-3 4c-6 8-9 12-15 12-4 0-8-2-13-5l-2-2-2-1-1-1h-1l-1 1a2 2 0 1 1-1-3 2 2 0 0 1 2 0l-1 1 1 1a2 2 0 0 1-1-2v-1a2 2 0 0 1 3 0h-1a4 4 0 0 1-1 1 2 2 0 0 1-1-2 2 2 0 0 1 3-1 6 6 0 0 1 0 2l1 1 2 2a118 118 0 0 0 2 1c5 4 8 5 12 5s7-3 12-10l3-5c5-7 8-11 12-14a5 5 0 0 1 1-1 2 2 0 1 1 3 0l-1 1a2 2 0 0 1-1 2 4 4 0 0 1 0-2 2 2 0 0 1 2 1 2 2 0 0 1-3 2zm1-3a2 2 0 0 1-1-3l1-1a2 2 0 1 1 2 2 3 3 0 0 0 0 1 2 2 0 0 1-2 1 4 4 0 0 1 0-1v1zm-56 18h1l1-1 1 1a3 3 0 0 0-1 1 2 2 0 0 1-3 0 6 6 0 0 1 1-1 21 21 0 0 0-9-2c-11 0-21 10-31 29a2 2 0 1 1-3-2c11-19 22-30 34-30l10 2a2 2 0 0 1 2 2 3 3 0 0 0 0 1 2 2 0 0 1-3 0zm1-3l1-1h1a2 2 0 0 1 1 3h-2l1-1-2-1zm59-12a2 2 0 0 1 0 3 6 6 0 0 1-1-1 2 2 0 0 1 0-3l1 1zm-1-5a2 2 0 0 1-2-3h1a2 2 0 0 1 1 3zm1 0a2 2 0 1 1 0-3 6 6 0 0 1 1 0 2 2 0 0 1-1 3zm1 4a2 2 0 1 1 2 2l-1 1a2 2 0 1 1-1-3zm-1 0a2 2 0 1 1 1 3h-1a2 2 0 0 1 0-2v-1zm-55 20a2 2 0 0 1 0 3 6 6 0 0 1-1-1 2 2 0 0 1 0-3l1 1zm-1-1a2 2 0 1 1-2 3l-1-1a2 2 0 0 1 2-2h1zm-1-1a2 2 0 0 1-3 2v-1a2 2 0 0 1 3-1zm2-3a2 2 0 1 1 0-3 6 6 0 0 1 1 0 2 2 0 0 1-1 3zm1 0a2 2 0 0 1 1-3l2 1a2 2 0 1 1-2 2 3 3 0 0 0-1 0zm1 1a2 2 0 1 1 2-2l1 1a2 2 0 0 1-3 1zm-2 3a2 2 0 1 1 1 3h-1a2 2 0 0 1 0-2v-1z" fill="#FFF" fill-rule="nonzero"/><path d="M108 202a5 5 0 0 1 5-5h82a5 5 0 1 1 0 10h-82a5 5 0 0 1-5-5z" fill="url(#f)" fill-rule="nonzero"/><path d="M124 84a2 2 0 0 1-4-1l1-6a2 2 0 1 1 4 1 92 92 0 0 0-1 6zm4-16a2 2 0 0 1-4-1 49 49 0 0 1 2-6 2 2 0 0 1 4 2 45 45 0 0 0-2 5zm7-12a2 2 0 0 1-2-3l5-4a2 2 0 0 1 2 3 28 28 0 0 0-5 4zm13-8a2 2 0 1 1-1-4 46 46 0 0 1 6-1 2 2 0 1 1 1 4l-6 1zM13 145a2 2 0 1 1-4 0l1-6a2 2 0 1 1 4 0 92 92 0 0 0-1 6zm4-15a2 2 0 0 1-4-1 49 49 0 0 1 2-6 2 2 0 1 1 4 2 45 45 0 0 0-2 5zm7-13a2 2 0 0 1-2-3l5-4a2 2 0 1 1 2 4 28 28 0 0 0-5 3zm13-7a2 2 0 0 1-1-4 46 46 0 0 1 6-2 2 2 0 0 1 1 4l-6 2zm141-62a5 5 0 1 1 0-9 5 5 0 0 1 0 9zm0 3a8 8 0 1 0 0-15 8 8 0 0 0 0 15zm0 3a11 11 0 1 1 0-21 11 11 0 0 1 0 21zM11 164a5 5 0 1 1 0-9 5 5 0 0 1 0 9zm0 3a8 8 0 1 0 0-15 8 8 0 0 0 0 15zm0 3a11 11 0 1 1 0-21 11 11 0 0 1 0 21z" fill="#D4DFFF" fill-rule="nonzero"/><path d="M4 189h21a4 4 0 0 1 4 4v45a4 4 0 0 1-4 4H4a4 4 0 0 1-4-4v-45a4 4 0 0 1 4-4zm36-14h21a4 4 0 0 1 4 4v59a4 4 0 0 1-4 4H40a4 4 0 0 1-4-4v-59a4 4 0 0 1 4-4zm72 0h21a4 4 0 0 1 4 4v59a4 4 0 0 1-4 4h-21a4 4 0 0 1-4-4v-59a4 4 0 0 1 4-4zm-35-29h21a4 4 0 0 1 4 4v88a4 4 0 0 1-4 4H77a4 4 0 0 1-4-4v-88a4 4 0 0 1 4-4z" fill="url(#g)"/><path d="M257 156h33a2 2 0 0 1 2 2v1a2 2 0 0 1-2 2h-33a2 2 0 0 1-2-2v-1l2-2zm0 10h53a2 2 0 0 1 2 2v1a2 2 0 0 1-2 2h-53a2 2 0 0 1-2-2v-1l2-2zM23 70h33a2 2 0 0 1 2 2v1a2 2 0 0 1-2 2H23a2 2 0 0 1-2-2v-1l2-2zM3 80h53a2 2 0 0 1 2 2v1a2 2 0 0 1-2 2H3a2 2 0 0 1-2-2v-1l2-2z" fill="url(#h)"/><path d="M93 118h32a2 2 0 0 1 2 2v1a2 2 0 0 1-2 2H93a2 2 0 0 1-2-2v-1l2-2zm-1 13h33a2 2 0 0 1 2 2v1a2 2 0 0 1-2 2H92a2 2 0 0 1-2-2v-1c0-2 1-2 2-2z" fill="#FFF" fill-rule="nonzero"/></g></svg>